REM DIRINDEX 1\2\5,1\2\6,1\3\7,1\3\8,1\4\9,1\4\10
REM DIRNAME cjc079,folder01,folder02,folder03,folder04,folder05,folder06,folder07,folder08,folder09
TITLE ""
FILE "Track27.mp3" MP3
  TRACK 01 AUDIO
    TITLE "8:cjc079_0820"
    INDEX 01 00:00:00
  TRACK 02 AUDIO
    TITLE "8:cjc079_0821"
    INDEX 01 00:02:38
  TRACK 03 AUDIO
    TITLE "7:cjc079_0822"
    INDEX 01 00:04:40
  TRACK 04 AUDIO
    TITLE "0:"
    INDEX 01 00:05:50
  TRACK 05 AUDIO
    TITLE "7:cjc079_0823"
    INDEX 01 00:06:20
  TRACK 06 AUDIO
    TITLE "0:"
    INDEX 01 00:07:29
  TRACK 07 AUDIO
    TITLE "7:cjc079_0824"
    INDEX 01 00:09:00
  TRACK 08 AUDIO
    TITLE "0:"
    INDEX 01 00:10:19
  TRACK 09 AUDIO
    TITLE "7:cjc079_0825"
    INDEX 01 00:10:66
  TRACK 10 AUDIO
    TITLE "0:"
    INDEX 01 00:12:11
  TRACK 11 AUDIO
    TITLE "7:cjc079_0826"
    INDEX 01 00:13:57
  TRACK 12 AUDIO
    TITLE "0:"
    INDEX 01 00:14:74
  TRACK 13 AUDIO
    TITLE "7:cjc079_0827"
    INDEX 01 00:15:42
  TRACK 14 AUDIO
    TITLE "0:"
    INDEX 01 00:16:59
  TRACK 15 AUDIO
    TITLE "7:cjc079_0828"
    INDEX 01 00:18:31
  TRACK 16 AUDIO
    TITLE "0:"
    INDEX 01 00:19:52
  TRACK 17 AUDIO
    TITLE "7:cjc079_0829"
    INDEX 01 00:20:22
  TRACK 18 AUDIO
    TITLE "0:"
    INDEX 01 00:21:43
  TRACK 19 AUDIO
    TITLE "8:cjc079_0830"
    INDEX 01 00:23:20
  TRACK 20 AUDIO
    TITLE "7:cjc079_0831"
    INDEX 01 00:25:17
  TRACK 21 AUDIO
    TITLE "0:"
    INDEX 01 00:26:44
  TRACK 22 AUDIO
    TITLE "7:cjc079_0832"
    INDEX 01 00:27:16
  TRACK 23 AUDIO
    TITLE "0:"
    INDEX 01 00:28:43
  TRACK 24 AUDIO
    TITLE "7:cjc079_0833"
    INDEX 01 00:30:14
  TRACK 25 AUDIO
    TITLE "0:"
    INDEX 01 00:31:22
  TRACK 26 AUDIO
    TITLE "7:cjc079_0834"
    INDEX 01 00:31:69
  TRACK 27 AUDIO
    TITLE "0:"
    INDEX 01 00:32:74
  TRACK 28 AUDIO
    TITLE "7:cjc079_0835"
    INDEX 01 00:34:49
  TRACK 29 AUDIO
    TITLE "0:"
    INDEX 01 00:35:63
  TRACK 30 AUDIO
    TITLE "7:cjc079_0836"
    INDEX 01 00:36:35
  TRACK 31 AUDIO
    TITLE "0:"
    INDEX 01 00:37:46
  TRACK 32 AUDIO
    TITLE "7:cjc079_0837"
    INDEX 01 00:39:19
  TRACK 33 AUDIO
    TITLE "0:"
    INDEX 01 00:40:28
  TRACK 34 AUDIO
    TITLE "7:cjc079_0838"
    INDEX 01 00:40:72
  TRACK 35 AUDIO
    TITLE "0:"
    INDEX 01 00:42:08
  TRACK 36 AUDIO
    TITLE "8:cjc079_0839"
    INDEX 01 00:43:52
  TRACK 37 AUDIO
    TITLE "7:cjc079_0840"
    INDEX 01 00:45:55
  TRACK 38 AUDIO
    TITLE "0:"
    INDEX 01 00:46:70
  TRACK 39 AUDIO
    TITLE "7:cjc079_0841"
    INDEX 01 00:47:40
  TRACK 40 AUDIO
    TITLE "0:"
    INDEX 01 00:48:57
  TRACK 41 AUDIO
    TITLE "7:cjc079_0842"
    INDEX 01 00:50:27
  TRACK 42 AUDIO
    TITLE "0:"
    INDEX 01 00:51:32
  TRACK 43 AUDIO
    TITLE "7:cjc079_0843"
    INDEX 01 00:52:00
  TRACK 44 AUDIO
    TITLE "0:"
    INDEX 01 00:53:04
  TRACK 45 AUDIO
    TITLE "7:cjc079_0844"
    INDEX 01 00:54:50
  TRACK 46 AUDIO
    TITLE "0:"
    INDEX 01 00:56:04
  TRACK 47 AUDIO
    TITLE "7:cjc079_0845"
    INDEX 01 00:56:53
  TRACK 48 AUDIO
    TITLE "0:"
    INDEX 01 00:58:07
  TRACK 49 AUDIO
    TITLE "7:cjc079_0846"
    INDEX 01 00:59:57
  TRACK 50 AUDIO
    TITLE "0:"
    INDEX 01 01:01:05
  TRACK 51 AUDIO
    TITLE "7:cjc079_0847"
    INDEX 01 01:01:48
  TRACK 52 AUDIO
    TITLE "0:"
    INDEX 01 01:02:71
  TRACK 53 AUDIO
    TITLE "8:cjc079_0848"
    INDEX 01 01:04:43
  TRACK 54 AUDIO
    TITLE "7:cjc079_0849"
    INDEX 01 01:06:42
  TRACK 55 AUDIO
    TITLE "0:"
    INDEX 01 01:07:55
  TRACK 56 AUDIO
    TITLE "7:cjc079_0850"
    INDEX 01 01:08:27
  TRACK 57 AUDIO
    TITLE "0:"
    INDEX 01 01:09:40
  TRACK 58 AUDIO
    TITLE "7:cjc079_0851"
    INDEX 01 01:11:13
  TRACK 59 AUDIO
    TITLE "0:"
    INDEX 01 01:12:44
  TRACK 60 AUDIO
    TITLE "7:cjc079_0852"
    INDEX 01 01:13:18
  TRACK 61 AUDIO
    TITLE "0:"
    INDEX 01 01:14:49
  TRACK 62 AUDIO
    TITLE "7:cjc079_0853"
    INDEX 01 01:16:22
  TRACK 63 AUDIO
    TITLE "0:"
    INDEX 01 01:17:53
  TRACK 64 AUDIO
    TITLE "7:cjc079_0854"
    INDEX 01 01:18:25
  TRACK 65 AUDIO
    TITLE "0:"
    INDEX 01 01:19:56
  TRACK 66 AUDIO
    TITLE "7:cjc079_0855"
    INDEX 01 01:21:29
  TRACK 67 AUDIO
    TITLE "0:"
    INDEX 01 01:22:44
  TRACK 68 AUDIO
    TITLE "7:cjc079_0856"
    INDEX 01 01:23:15
  TRACK 69 AUDIO
    TITLE "0:"
    INDEX 01 01:24:28
